<svg xmlns="http://www.w3.org/2000/svg" xmlns:xlink="http://www.w3.org/1999/xlink" width="500" zoomAndPan="magnify" viewBox="0 0 375 374.999991" height="500" preserveAspectRatio="xMidYMid meet" version="1.0"><defs><g/><clipPath id="7d5b50e123"><path d="M 122 225 L 141 225 L 141 226.558594 L 122 226.558594 Z M 122 225 " clip-rule="nonzero"/></clipPath><clipPath id="6a88d6abad"><path d="M 48.78125 224 L 68 224 L 68 226.558594 L 48.78125 226.558594 Z M 48.78125 224 " clip-rule="nonzero"/></clipPath><clipPath id="54092e8a0c"><path d="M 124 223 L 129 223 L 129 226.558594 L 124 226.558594 Z M 124 223 " clip-rule="nonzero"/></clipPath><clipPath id="8925b722b5"><path d="M 133 223 L 137 223 L 137 226.558594 L 133 226.558594 Z M 133 223 " clip-rule="nonzero"/></clipPath></defs><path fill="#e5e1f9" d="M 144.382812 219.0625 C 144.234375 219.460938 144.066406 219.863281 143.875 220.242188 L 50.195312 220.242188 C 50.089844 219.84375 49.984375 219.460938 49.898438 219.0625 C 49.878906 219.019531 49.878906 218.976562 49.878906 218.914062 C 49.390625 216.53125 49.496094 214.042969 50.339844 211.636719 C 52.832031 204.546875 56.628906 197.207031 56.4375 189.527344 C 56.355469 186.152344 55.554688 182.839844 55.765625 179.445312 C 56.3125 170.4375 60.742188 161.894531 69.121094 157.863281 C 75.933594 154.59375 83.910156 153.835938 91.316406 154.320312 C 99.3125 154.847656 107.332031 157.675781 113.089844 163.390625 C 117.796875 168.03125 119.96875 174.488281 123.535156 179.929688 C 124.886719 181.996094 126.320312 184.042969 127.921875 185.921875 C 130.414062 188.832031 134.210938 190.792969 136.890625 193.664062 C 139.78125 196.765625 142.292969 200.289062 144.042969 204.148438 C 146.28125 209.148438 146.175781 214.464844 144.382812 219.0625 Z M 144.382812 219.0625 " fill-opacity="1" fill-rule="nonzero"/><path fill="#a386f4" d="M 83.445312 160.542969 L 82.980469 160.542969 C 82.898438 160.1875 82.769531 159.847656 82.582031 159.53125 L 82.917969 159.195312 C 83.046875 159.066406 83.046875 158.878906 82.917969 158.75 L 82.179688 158.011719 C 82.054688 157.886719 81.863281 157.886719 81.738281 158.011719 L 81.421875 158.328125 C 81.125 158.140625 80.789062 157.992188 80.429688 157.90625 L 80.429688 157.421875 C 80.429688 157.253906 80.28125 157.105469 80.113281 157.105469 L 79.058594 157.105469 C 78.890625 157.105469 78.742188 157.253906 78.742188 157.421875 L 78.742188 157.886719 C 78.382812 157.96875 78.046875 158.097656 77.726562 158.285156 L 77.390625 157.949219 C 77.265625 157.824219 77.074219 157.824219 76.949219 157.949219 L 76.210938 158.6875 C 76.082031 158.8125 76.082031 159.003906 76.210938 159.128906 L 76.546875 159.46875 C 76.355469 159.765625 76.210938 160.101562 76.125 160.460938 L 75.640625 160.460938 C 75.472656 160.460938 75.324219 160.609375 75.324219 160.777344 L 75.324219 161.832031 C 75.324219 162 75.472656 162.148438 75.640625 162.148438 L 76.105469 162.148438 C 76.1875 162.507812 76.316406 162.84375 76.503906 163.160156 L 76.167969 163.496094 C 76.039062 163.625 76.039062 163.8125 76.167969 163.941406 L 76.90625 164.679688 C 77.03125 164.804688 77.222656 164.804688 77.347656 164.679688 L 77.664062 164.363281 C 77.960938 164.550781 78.296875 164.699219 78.65625 164.785156 L 78.65625 165.269531 C 78.65625 165.4375 78.804688 165.585938 78.972656 165.585938 L 80.027344 165.585938 C 80.195312 165.585938 80.34375 165.4375 80.34375 165.269531 L 80.34375 164.804688 C 80.703125 164.722656 81.042969 164.59375 81.359375 164.40625 L 81.695312 164.742188 C 81.820312 164.867188 82.011719 164.867188 82.136719 164.742188 L 82.875 164.003906 C 83.003906 163.878906 83.003906 163.6875 82.875 163.5625 L 82.539062 163.222656 C 82.730469 162.929688 82.875 162.589844 82.960938 162.230469 L 83.445312 162.230469 C 83.613281 162.230469 83.761719 162.085938 83.761719 161.914062 L 83.761719 160.859375 C 83.761719 160.691406 83.613281 160.542969 83.445312 160.542969 Z M 79.667969 163.308594 C 78.53125 163.371094 77.601562 162.464844 77.601562 161.347656 C 77.601562 160.269531 78.488281 159.382812 79.5625 159.382812 C 80.683594 159.382812 81.570312 160.3125 81.527344 161.453125 C 81.464844 162.441406 80.660156 163.246094 79.667969 163.308594 Z M 79.667969 163.308594 " fill-opacity="1" fill-rule="nonzero"/><path fill="#e5e1f9" d="M 136.488281 172.441406 L 135.898438 172.441406 C 135.792969 171.976562 135.625 171.554688 135.371094 171.15625 L 135.816406 170.710938 C 135.960938 170.5625 135.960938 170.3125 135.816406 170.164062 L 134.867188 169.214844 C 134.71875 169.066406 134.464844 169.066406 134.316406 169.214844 L 133.894531 169.636719 C 133.515625 169.382812 133.070312 169.214844 132.609375 169.085938 L 132.609375 168.476562 C 132.609375 168.265625 132.4375 168.074219 132.207031 168.074219 L 130.855469 168.074219 C 130.644531 168.074219 130.457031 168.242188 130.457031 168.476562 L 130.457031 169.066406 C 129.992188 169.171875 129.570312 169.339844 129.167969 169.574219 L 128.726562 169.128906 C 128.578125 168.980469 128.324219 168.980469 128.175781 169.128906 L 127.207031 170.078125 C 127.058594 170.226562 127.058594 170.480469 127.207031 170.628906 L 127.628906 171.050781 C 127.375 171.429688 127.207031 171.871094 127.078125 172.335938 L 126.46875 172.335938 C 126.257812 172.335938 126.066406 172.503906 126.066406 172.738281 L 126.066406 174.085938 C 126.066406 174.296875 126.234375 174.488281 126.46875 174.488281 L 127.058594 174.488281 C 127.164062 174.953125 127.332031 175.375 127.566406 175.773438 L 127.121094 176.21875 C 126.972656 176.367188 126.972656 176.617188 127.121094 176.765625 L 128.070312 177.714844 C 128.21875 177.863281 128.472656 177.863281 128.621094 177.714844 L 129.042969 177.292969 C 129.421875 177.546875 129.863281 177.714844 130.328125 177.84375 L 130.328125 178.453125 C 130.328125 178.664062 130.496094 178.855469 130.730469 178.855469 L 132.082031 178.855469 C 132.292969 178.855469 132.480469 178.6875 132.480469 178.453125 L 132.480469 177.863281 C 132.945312 177.757812 133.367188 177.589844 133.769531 177.355469 L 134.210938 177.800781 C 134.359375 177.949219 134.613281 177.949219 134.761719 177.800781 L 135.710938 176.851562 C 135.855469 176.703125 135.855469 176.449219 135.710938 176.300781 L 135.289062 175.878906 C 135.539062 175.5 135.730469 175.058594 135.835938 174.59375 L 136.449219 174.59375 C 136.660156 174.59375 136.847656 174.425781 136.847656 174.191406 L 136.847656 172.820312 C 136.871094 172.609375 136.699219 172.441406 136.488281 172.441406 Z M 131.617188 175.964844 C 130.160156 176.050781 128.957031 174.890625 128.957031 173.453125 C 128.957031 172.0625 130.074219 170.945312 131.46875 170.945312 C 132.902344 170.945312 134.0625 172.144531 133.980469 173.582031 C 133.914062 174.847656 132.882812 175.902344 131.617188 175.964844 Z M 131.617188 175.964844 " fill-opacity="1" fill-rule="nonzero"/><g clip-path="url(#7d5b50e123)"><path fill="#e5e1f9" d="M 140.730469 225.875 C 140.730469 225.914062 140.671875 225.949219 140.550781 225.988281 C 140.433594 226.023438 140.253906 226.058594 140.019531 226.09375 C 139.785156 226.128906 139.5 226.160156 139.160156 226.191406 C 138.820312 226.222656 138.433594 226.25 138 226.277344 C 137.566406 226.304688 137.09375 226.328125 136.585938 226.347656 C 136.078125 226.371094 135.539062 226.386719 134.972656 226.402344 C 134.410156 226.414062 133.824219 226.425781 133.222656 226.433594 C 132.625 226.441406 132.015625 226.445312 131.40625 226.445312 C 130.792969 226.445312 130.1875 226.441406 129.585938 226.433594 C 128.984375 226.425781 128.402344 226.414062 127.835938 226.402344 C 127.269531 226.386719 126.734375 226.371094 126.222656 226.347656 C 125.714844 226.328125 125.242188 226.304688 124.8125 226.277344 C 124.378906 226.25 123.992188 226.222656 123.652344 226.191406 C 123.3125 226.160156 123.023438 226.128906 122.789062 226.09375 C 122.554688 226.058594 122.378906 226.023438 122.257812 225.988281 C 122.140625 225.949219 122.078125 225.914062 122.078125 225.875 C 122.078125 225.839844 122.140625 225.800781 122.257812 225.765625 C 122.378906 225.726562 122.554688 225.691406 122.789062 225.65625 C 123.023438 225.621094 123.3125 225.589844 123.652344 225.558594 C 123.992188 225.527344 124.378906 225.5 124.8125 225.472656 C 125.242188 225.445312 125.714844 225.421875 126.222656 225.402344 C 126.734375 225.382812 127.269531 225.363281 127.835938 225.347656 C 128.402344 225.335938 128.984375 225.324219 129.585938 225.316406 C 130.1875 225.308594 130.792969 225.304688 131.40625 225.304688 C 132.015625 225.304688 132.625 225.308594 133.222656 225.316406 C 133.824219 225.324219 134.410156 225.335938 134.972656 225.347656 C 135.539062 225.363281 136.078125 225.382812 136.585938 225.402344 C 137.09375 225.421875 137.566406 225.445312 138 225.472656 C 138.433594 225.5 138.820312 225.527344 139.160156 225.558594 C 139.5 225.589844 139.785156 225.621094 140.019531 225.65625 C 140.253906 225.691406 140.433594 225.726562 140.550781 225.765625 C 140.671875 225.800781 140.730469 225.839844 140.730469 225.875 Z M 140.730469 225.875 " fill-opacity="1" fill-rule="nonzero"/></g><g clip-path="url(#6a88d6abad)"><path fill="#e5e1f9" d="M 67.433594 225.539062 C 67.433594 225.574219 67.371094 225.613281 67.253906 225.648438 C 67.132812 225.6875 66.957031 225.722656 66.722656 225.757812 C 66.488281 225.789062 66.199219 225.824219 65.859375 225.855469 C 65.519531 225.886719 65.132812 225.914062 64.699219 225.941406 C 64.265625 225.96875 63.796875 225.992188 63.289062 226.011719 C 62.777344 226.03125 62.242188 226.050781 61.675781 226.0625 C 61.109375 226.078125 60.527344 226.089844 59.925781 226.097656 C 59.324219 226.105469 58.71875 226.109375 58.105469 226.109375 C 57.492188 226.109375 56.886719 226.105469 56.285156 226.097656 C 55.6875 226.089844 55.101562 226.078125 54.539062 226.0625 C 53.972656 226.050781 53.433594 226.03125 52.925781 226.011719 C 52.414062 225.992188 51.945312 225.96875 51.511719 225.941406 C 51.078125 225.914062 50.691406 225.886719 50.351562 225.855469 C 50.011719 225.824219 49.722656 225.789062 49.488281 225.757812 C 49.253906 225.722656 49.078125 225.6875 48.960938 225.648438 C 48.839844 225.613281 48.78125 225.574219 48.78125 225.539062 C 48.78125 225.5 48.839844 225.464844 48.960938 225.425781 C 49.078125 225.390625 49.253906 225.355469 49.488281 225.320312 C 49.722656 225.285156 50.011719 225.253906 50.351562 225.222656 C 50.691406 225.191406 51.078125 225.160156 51.511719 225.136719 C 51.945312 225.109375 52.414062 225.085938 52.925781 225.0625 C 53.433594 225.042969 53.972656 225.027344 54.539062 225.011719 C 55.101562 224.996094 55.6875 224.988281 56.285156 224.980469 C 56.886719 224.972656 57.492188 224.96875 58.105469 224.96875 C 58.71875 224.96875 59.324219 224.972656 59.925781 224.980469 C 60.527344 224.988281 61.109375 224.996094 61.675781 225.011719 C 62.242188 225.027344 62.777344 225.042969 63.289062 225.0625 C 63.796875 225.085938 64.265625 225.109375 64.699219 225.136719 C 65.132812 225.160156 65.519531 225.191406 65.859375 225.222656 C 66.199219 225.253906 66.488281 225.285156 66.722656 225.320312 C 66.957031 225.355469 67.132812 225.390625 67.253906 225.425781 C 67.371094 225.464844 67.433594 225.5 67.433594 225.539062 Z M 67.433594 225.539062 " fill-opacity="1" fill-rule="nonzero"/></g><path fill="#263156" d="M 108.40625 181.640625 L 114.421875 181.640625 L 114.421875 164.679688 C 114.421875 163.011719 113.070312 161.683594 111.425781 161.683594 C 109.757812 161.683594 108.429688 163.035156 108.429688 164.679688 L 108.429688 181.640625 Z M 108.40625 181.640625 " fill-opacity="1" fill-rule="nonzero"/><path fill="#263156" d="M 114.527344 181.746094 L 108.300781 181.746094 L 108.300781 164.679688 C 108.300781 162.96875 109.695312 161.558594 111.425781 161.558594 C 113.152344 161.558594 114.546875 162.949219 114.546875 164.679688 L 114.546875 181.746094 Z M 108.511719 181.511719 L 114.292969 181.511719 L 114.292969 164.679688 C 114.292969 163.074219 112.984375 161.789062 111.402344 161.789062 C 109.820312 161.789062 108.511719 163.097656 108.511719 164.679688 Z M 108.511719 181.511719 " fill-opacity="1" fill-rule="nonzero"/><path fill="#263156" d="M 73.425781 199.613281 L 89.207031 199.613281 L 89.207031 215.390625 L 73.425781 215.390625 Z M 73.425781 199.613281 " fill-opacity="1" fill-rule="nonzero"/><path fill="#a386f4" d="M 71.820312 199.613281 L 87.601562 199.613281 L 87.601562 215.390625 L 71.820312 215.390625 Z M 71.820312 199.613281 " fill-opacity="1" fill-rule="nonzero"/><path fill="#263156" d="M 75.113281 199.613281 L 78.214844 199.613281 L 78.214844 204.992188 L 75.113281 204.992188 Z M 75.113281 199.613281 " fill-opacity="1" fill-rule="nonzero"/><path fill="#263156" d="M 80.492188 213.027344 L 85.789062 213.027344 L 85.789062 213.894531 L 80.492188 213.894531 Z M 80.492188 213.027344 " fill-opacity="0.3" fill-rule="nonzero"/><path fill="#263156" d="M 90.492188 199.613281 L 106.277344 199.613281 L 106.277344 215.390625 L 90.492188 215.390625 Z M 90.492188 199.613281 " fill-opacity="1" fill-rule="nonzero"/><path fill="#a386f4" d="M 88.890625 199.613281 L 104.671875 199.613281 L 104.671875 215.390625 L 88.890625 215.390625 Z M 88.890625 199.613281 " fill-opacity="1" fill-rule="nonzero"/><path fill="#263156" d="M 92.179688 199.613281 L 95.28125 199.613281 L 95.28125 204.992188 L 92.179688 204.992188 Z M 92.179688 199.613281 " fill-opacity="1" fill-rule="nonzero"/><path fill="#263156" d="M 97.582031 213.027344 L 102.878906 213.027344 L 102.878906 213.894531 L 97.582031 213.894531 Z M 97.582031 213.027344 " fill-opacity="0.3" fill-rule="nonzero"/><path fill="#263156" d="M 107.585938 199.613281 L 123.367188 199.613281 L 123.367188 215.390625 L 107.585938 215.390625 Z M 107.585938 199.613281 " fill-opacity="1" fill-rule="nonzero"/><path fill="#a386f4" d="M 105.980469 199.613281 L 121.761719 199.613281 L 121.761719 215.390625 L 105.980469 215.390625 Z M 105.980469 199.613281 " fill-opacity="1" fill-rule="nonzero"/><path fill="#263156" d="M 109.273438 199.613281 L 112.375 199.613281 L 112.375 204.992188 L 109.273438 204.992188 Z M 109.273438 199.613281 " fill-opacity="1" fill-rule="nonzero"/><path fill="#263156" d="M 114.652344 213.027344 L 119.949219 213.027344 L 119.949219 213.894531 L 114.652344 213.894531 Z M 114.652344 213.027344 " fill-opacity="0.3" fill-rule="nonzero"/><path fill="#263156" d="M 73.425781 183.539062 L 89.207031 183.539062 L 89.207031 199.316406 L 73.425781 199.316406 Z M 73.425781 183.539062 " fill-opacity="1" fill-rule="nonzero"/><path fill="#a386f4" d="M 71.820312 183.539062 L 87.601562 183.539062 L 87.601562 199.316406 L 71.820312 199.316406 Z M 71.820312 183.539062 " fill-opacity="1" fill-rule="nonzero"/><path fill="#263156" d="M 75.113281 183.539062 L 78.214844 183.539062 L 78.214844 188.917969 L 75.113281 188.917969 Z M 75.113281 183.539062 " fill-opacity="1" fill-rule="nonzero"/><path fill="#263156" d="M 80.492188 196.933594 L 85.789062 196.933594 L 85.789062 197.796875 L 80.492188 197.796875 Z M 80.492188 196.933594 " fill-opacity="0.3" fill-rule="nonzero"/><path fill="#263156" d="M 90.492188 183.539062 L 106.277344 183.539062 L 106.277344 199.316406 L 90.492188 199.316406 Z M 90.492188 183.539062 " fill-opacity="1" fill-rule="nonzero"/><path fill="#a386f4" d="M 88.890625 183.539062 L 104.671875 183.539062 L 104.671875 199.316406 L 88.890625 199.316406 Z M 88.890625 183.539062 " fill-opacity="1" fill-rule="nonzero"/><path fill="#263156" d="M 92.179688 183.539062 L 95.28125 183.539062 L 95.28125 188.917969 L 92.179688 188.917969 Z M 92.179688 183.539062 " fill-opacity="1" fill-rule="nonzero"/><path fill="#263156" d="M 97.582031 196.933594 L 102.878906 196.933594 L 102.878906 197.796875 L 97.582031 197.796875 Z M 97.582031 196.933594 " fill-opacity="0.3" fill-rule="nonzero"/><path fill="#263156" d="M 107.585938 183.539062 L 123.367188 183.539062 L 123.367188 199.316406 L 107.585938 199.316406 Z M 107.585938 183.539062 " fill-opacity="1" fill-rule="nonzero"/><path fill="#a386f4" d="M 105.980469 183.539062 L 121.761719 183.539062 L 121.761719 199.316406 L 105.980469 199.316406 Z M 105.980469 183.539062 " fill-opacity="1" fill-rule="nonzero"/><path fill="#263156" d="M 109.273438 183.539062 L 112.375 183.539062 L 112.375 188.917969 L 109.273438 188.917969 Z M 109.273438 183.539062 " fill-opacity="1" fill-rule="nonzero"/><path fill="#263156" d="M 114.652344 196.933594 L 119.949219 196.933594 L 119.949219 197.796875 L 114.652344 197.796875 Z M 114.652344 196.933594 " fill-opacity="0.3" fill-rule="nonzero"/><path fill="#263156" d="M 72.011719 183.136719 L 123.386719 183.136719 L 123.386719 183.515625 L 72.011719 183.515625 Z M 72.011719 183.136719 " fill-opacity="1" fill-rule="nonzero"/><path fill="#263156" d="M 75.535156 216.65625 L 83.234375 216.65625 L 83.234375 220.328125 L 75.535156 220.328125 Z M 75.535156 216.65625 " fill-opacity="1" fill-rule="nonzero"/><path fill="#263156" d="M 93.847656 216.65625 L 101.550781 216.65625 L 101.550781 220.328125 L 93.847656 220.328125 Z M 93.847656 216.65625 " fill-opacity="1" fill-rule="nonzero"/><path fill="#263156" d="M 112.164062 216.65625 L 119.863281 216.65625 L 119.863281 220.328125 L 112.164062 220.328125 Z M 112.164062 216.65625 " fill-opacity="1" fill-rule="nonzero"/><path fill="#263156" d="M 67.707031 215.347656 L 127.671875 215.347656 L 127.671875 217.035156 L 67.707031 217.035156 Z M 67.707031 215.347656 " fill-opacity="1" fill-rule="nonzero"/><path fill="#263156" d="M 72.011719 199.253906 L 123.386719 199.253906 L 123.386719 199.632812 L 72.011719 199.632812 Z M 72.011719 199.253906 " fill-opacity="1" fill-rule="nonzero"/><path fill="#263156" d="M 73.425781 167.398438 L 89.207031 167.398438 L 89.207031 183.179688 L 73.425781 183.179688 Z M 73.425781 167.398438 " fill-opacity="1" fill-rule="nonzero"/><path fill="#a386f4" d="M 71.820312 167.398438 L 87.601562 167.398438 L 87.601562 183.179688 L 71.820312 183.179688 Z M 71.820312 167.398438 " fill-opacity="1" fill-rule="nonzero"/><path fill="#263156" d="M 75.113281 167.398438 L 78.214844 167.398438 L 78.214844 172.78125 L 75.113281 172.78125 Z M 75.113281 167.398438 " fill-opacity="1" fill-rule="nonzero"/><path fill="#263156" d="M 80.492188 180.796875 L 85.789062 180.796875 L 85.789062 181.660156 L 80.492188 181.660156 Z M 80.492188 180.796875 " fill-opacity="0.3" fill-rule="nonzero"/><path fill="#263156" d="M 90.492188 167.398438 L 106.277344 167.398438 L 106.277344 183.179688 L 90.492188 183.179688 Z M 90.492188 167.398438 " fill-opacity="1" fill-rule="nonzero"/><path fill="#a386f4" d="M 88.890625 167.398438 L 104.671875 167.398438 L 104.671875 183.179688 L 88.890625 183.179688 Z M 88.890625 167.398438 " fill-opacity="1" fill-rule="nonzero"/><path fill="#263156" d="M 92.179688 167.398438 L 95.28125 167.398438 L 95.28125 172.78125 L 92.179688 172.78125 Z M 92.179688 167.398438 " fill-opacity="1" fill-rule="nonzero"/><path fill="#263156" d="M 97.582031 180.796875 L 102.878906 180.796875 L 102.878906 181.660156 L 97.582031 181.660156 Z M 97.582031 180.796875 " fill-opacity="0.3" fill-rule="nonzero"/><path fill="#263156" d="M 107.585938 167.398438 L 123.367188 167.398438 L 123.367188 183.179688 L 107.585938 183.179688 Z M 107.585938 167.398438 " fill-opacity="1" fill-rule="nonzero"/><path fill="#a386f4" d="M 105.980469 167.398438 L 121.761719 167.398438 L 121.761719 183.179688 L 105.980469 183.179688 Z M 105.980469 167.398438 " fill-opacity="1" fill-rule="nonzero"/><path fill="#263156" d="M 109.273438 167.398438 L 112.375 167.398438 L 112.375 172.78125 L 109.273438 172.78125 Z M 109.273438 167.398438 " fill-opacity="1" fill-rule="nonzero"/><path fill="#263156" d="M 114.652344 180.796875 L 119.949219 180.796875 L 119.949219 181.660156 L 114.652344 181.660156 Z M 114.652344 180.796875 " fill-opacity="0.3" fill-rule="nonzero"/><path fill="#e5e1f9" d="M 111.402344 161.664062 C 110.582031 161.664062 109.820312 162 109.273438 162.546875 C 108.722656 163.097656 108.386719 163.835938 108.386719 164.679688 L 108.386719 191.679688 C 108.386719 192.230469 107.941406 192.671875 107.394531 192.671875 L 87.707031 192.671875 C 87.160156 192.671875 86.714844 192.230469 86.714844 191.679688 L 86.714844 164.382812 C 86.714844 162.886719 87.941406 161.664062 89.4375 161.664062 Z M 111.402344 161.664062 " fill-opacity="1" fill-rule="nonzero"/><path fill="#263156" d="M 107.394531 192.777344 L 87.707031 192.777344 C 87.097656 192.777344 86.589844 192.269531 86.589844 191.660156 L 86.589844 164.382812 C 86.589844 162.824219 87.855469 161.558594 89.417969 161.558594 L 111.402344 161.558594 L 111.402344 161.769531 C 110.621094 161.769531 109.90625 162.0625 109.355469 162.613281 C 108.808594 163.160156 108.511719 163.878906 108.511719 164.65625 L 108.511719 191.660156 C 108.511719 192.292969 108.007812 192.777344 107.394531 192.777344 Z M 89.4375 161.789062 C 88.003906 161.789062 86.824219 162.949219 86.824219 164.382812 L 86.824219 191.660156 C 86.824219 192.144531 87.222656 192.546875 87.707031 192.546875 L 107.394531 192.546875 C 107.878906 192.546875 108.28125 192.144531 108.28125 191.660156 L 108.28125 164.65625 C 108.28125 163.835938 108.597656 163.035156 109.1875 162.464844 C 109.484375 162.167969 109.839844 161.914062 110.242188 161.769531 L 89.4375 161.769531 Z M 89.4375 161.789062 " fill-opacity="1" fill-rule="nonzero"/><path fill="#263156" d="M 88.933594 185.921875 L 98.847656 185.921875 L 98.847656 186.429688 L 88.933594 186.429688 Z M 88.933594 185.921875 " fill-opacity="1" fill-rule="nonzero"/><path fill="#263156" d="M 101.378906 185.921875 L 105.75 185.921875 L 105.75 186.429688 L 101.378906 186.429688 Z M 101.378906 185.921875 " fill-opacity="1" fill-rule="nonzero"/><path fill="#263156" d="M 88.933594 187.652344 L 98.847656 187.652344 L 98.847656 188.15625 L 88.933594 188.15625 Z M 88.933594 187.652344 " fill-opacity="1" fill-rule="nonzero"/><path fill="#263156" d="M 101.378906 187.652344 L 105.75 187.652344 L 105.75 188.15625 L 101.378906 188.15625 Z M 101.378906 187.652344 " fill-opacity="1" fill-rule="nonzero"/><path fill="#263156" d="M 93.765625 167.335938 L 106.148438 167.335938 L 106.148438 167.714844 L 93.765625 167.714844 Z M 93.765625 167.335938 " fill-opacity="1" fill-rule="nonzero"/><path fill="#263156" d="M 93.765625 168.519531 L 102.183594 168.519531 L 102.183594 168.898438 L 93.765625 168.898438 Z M 93.765625 168.519531 " fill-opacity="1" fill-rule="nonzero"/><path fill="#e25469" d="M 92.265625 168.117188 C 92.265625 168.335938 92.222656 168.546875 92.140625 168.746094 C 92.058594 168.949219 91.9375 169.125 91.785156 169.28125 C 91.628906 169.433594 91.453125 169.554688 91.25 169.636719 C 91.046875 169.722656 90.839844 169.761719 90.621094 169.761719 C 90.402344 169.761719 90.191406 169.722656 89.992188 169.636719 C 89.789062 169.554688 89.609375 169.433594 89.457031 169.28125 C 89.300781 169.125 89.183594 168.949219 89.101562 168.746094 C 89.015625 168.546875 88.972656 168.335938 88.972656 168.117188 C 88.972656 167.898438 89.015625 167.6875 89.101562 167.488281 C 89.183594 167.285156 89.300781 167.109375 89.457031 166.953125 C 89.609375 166.800781 89.789062 166.679688 89.992188 166.597656 C 90.191406 166.511719 90.402344 166.472656 90.621094 166.472656 C 90.839844 166.472656 91.046875 166.511719 91.25 166.597656 C 91.453125 166.679688 91.628906 166.800781 91.785156 166.953125 C 91.9375 167.109375 92.058594 167.285156 92.140625 167.488281 C 92.222656 167.6875 92.265625 167.898438 92.265625 168.117188 Z M 92.265625 168.117188 " fill-opacity="1" fill-rule="nonzero"/><path fill="#263156" d="M 89.925781 168.730469 L 89.566406 167.863281 L 89.753906 167.78125 L 90.03125 168.433594 L 91.652344 167.570312 L 91.757812 167.757812 Z M 89.925781 168.730469 " fill-opacity="1" fill-rule="nonzero"/><path fill="#263156" d="M 93.765625 173.519531 L 106.148438 173.519531 L 106.148438 173.898438 L 93.765625 173.898438 Z M 93.765625 173.519531 " fill-opacity="1" fill-rule="nonzero"/><path fill="#263156" d="M 93.765625 174.71875 L 102.183594 174.71875 L 102.183594 175.101562 L 93.765625 175.101562 Z M 93.765625 174.71875 " fill-opacity="1" fill-rule="nonzero"/><path fill="#e25469" d="M 92.265625 174.296875 C 92.265625 174.515625 92.222656 174.726562 92.140625 174.929688 C 92.058594 175.128906 91.9375 175.308594 91.785156 175.460938 C 91.628906 175.617188 91.453125 175.734375 91.25 175.816406 C 91.046875 175.902344 90.839844 175.945312 90.621094 175.945312 C 90.402344 175.945312 90.191406 175.902344 89.992188 175.816406 C 89.789062 175.734375 89.609375 175.617188 89.457031 175.460938 C 89.300781 175.308594 89.183594 175.128906 89.101562 174.929688 C 89.015625 174.726562 88.972656 174.515625 88.972656 174.296875 C 88.972656 174.078125 89.015625 173.871094 89.101562 173.667969 C 89.183594 173.46875 89.300781 173.289062 89.457031 173.132812 C 89.609375 172.980469 89.789062 172.863281 89.992188 172.777344 C 90.191406 172.695312 90.402344 172.652344 90.621094 172.652344 C 90.839844 172.652344 91.046875 172.695312 91.25 172.777344 C 91.453125 172.863281 91.628906 172.980469 91.785156 173.132812 C 91.9375 173.289062 92.058594 173.46875 92.140625 173.667969 C 92.222656 173.871094 92.265625 174.078125 92.265625 174.296875 Z M 92.265625 174.296875 " fill-opacity="1" fill-rule="nonzero"/><path fill="#263156" d="M 89.925781 174.929688 L 89.566406 174.046875 L 89.753906 173.960938 L 90.03125 174.613281 L 91.652344 173.75 L 91.757812 173.941406 Z M 89.925781 174.929688 " fill-opacity="1" fill-rule="nonzero"/><path fill="#263156" d="M 93.765625 179.699219 L 106.148438 179.699219 L 106.148438 180.078125 L 93.765625 180.078125 Z M 93.765625 179.699219 " fill-opacity="1" fill-rule="nonzero"/><path fill="#263156" d="M 93.765625 180.902344 L 102.183594 180.902344 L 102.183594 181.28125 L 93.765625 181.28125 Z M 93.765625 180.902344 " fill-opacity="1" fill-rule="nonzero"/><path fill="#e25469" d="M 92.265625 180.5 C 92.265625 180.71875 92.222656 180.929688 92.140625 181.128906 C 92.058594 181.332031 91.9375 181.507812 91.785156 181.664062 C 91.628906 181.816406 91.453125 181.9375 91.25 182.019531 C 91.046875 182.105469 90.839844 182.144531 90.621094 182.144531 C 90.402344 182.144531 90.191406 182.105469 89.992188 182.019531 C 89.789062 181.9375 89.609375 181.816406 89.457031 181.664062 C 89.300781 181.507812 89.183594 181.332031 89.101562 181.128906 C 89.015625 180.929688 88.972656 180.71875 88.972656 180.5 C 88.972656 180.28125 89.015625 180.070312 89.101562 179.871094 C 89.183594 179.667969 89.300781 179.492188 89.457031 179.335938 C 89.609375 179.183594 89.789062 179.0625 89.992188 178.980469 C 90.191406 178.894531 90.402344 178.855469 90.621094 178.855469 C 90.839844 178.855469 91.046875 178.894531 91.25 178.980469 C 91.453125 179.0625 91.628906 179.183594 91.785156 179.335938 C 91.9375 179.492188 92.058594 179.667969 92.140625 179.871094 C 92.222656 180.070312 92.265625 180.28125 92.265625 180.5 Z M 92.265625 180.5 " fill-opacity="1" fill-rule="nonzero"/><path fill="#263156" d="M 89.925781 181.113281 L 89.566406 180.226562 L 89.753906 180.140625 L 90.03125 180.796875 L 91.652344 179.929688 L 91.757812 180.121094 Z M 89.925781 181.113281 " fill-opacity="1" fill-rule="nonzero"/><path fill="#e2aa52" d="M 57.496094 208.554688 C 57.429688 211.996094 57.980469 214.78125 58.695312 214.800781 C 59.414062 214.820312 60.046875 212.039062 60.109375 208.597656 C 60.171875 205.160156 59.625 202.375 58.90625 202.355469 C 58.191406 202.355469 57.558594 205.117188 57.496094 208.554688 Z M 57.496094 208.554688 " fill-opacity="1" fill-rule="nonzero"/><path fill="#e2aa52" d="M 61.546875 208.578125 C 61.882812 211.996094 62.726562 214.714844 63.445312 214.652344 C 64.160156 214.589844 64.476562 211.761719 64.140625 208.34375 C 63.804688 204.929688 62.957031 202.207031 62.242188 202.269531 C 61.523438 202.332031 61.207031 205.160156 61.546875 208.578125 Z M 61.546875 208.578125 " fill-opacity="1" fill-rule="nonzero"/><path fill="#e2aa52" d="M 59.203125 213.789062 C 58 211.890625 54.371094 220.453125 53.84375 222.816406 C 53.316406 225.179688 54.730469 223.089844 56.648438 219.800781 C 58.570312 216.488281 59.667969 214.546875 59.203125 213.789062 Z M 59.203125 213.789062 " fill-opacity="1" fill-rule="nonzero"/><path fill="#e2aa52" d="M 63.71875 213.621094 C 61.96875 212.207031 61.292969 221.488281 61.546875 223.871094 C 61.796875 226.277344 62.472656 223.851562 63.234375 220.117188 C 63.992188 216.382812 64.414062 214.1875 63.71875 213.621094 Z M 63.71875 213.621094 " fill-opacity="1" fill-rule="nonzero"/><path fill="#e2aa52" d="M 60.363281 208.113281 C 60.363281 208.113281 60.363281 212.902344 59.730469 214.609375 C 59.097656 216.320312 54.816406 223.089844 54.816406 223.089844 L 53.589844 222.5 C 53.589844 222.5 55.425781 216.128906 57.472656 213.832031 C 57.472656 213.832031 55.910156 202.503906 58.800781 202.082031 C 60.785156 201.804688 60.363281 208.113281 60.363281 208.113281 Z M 60.363281 208.113281 " fill-opacity="1" fill-rule="nonzero"/><path fill="#e2aa52" d="M 54.816406 223.089844 C 54.816406 223.089844 54.730469 223.386719 55.109375 223.554688 C 55.46875 223.722656 54.5625 223.957031 54.5625 223.957031 L 53.421875 223.027344 L 53.484375 222.710938 L 53.613281 222.5 Z M 54.816406 223.089844 " fill-opacity="1" fill-rule="nonzero"/><path fill="#e2aa52" d="M 64.203125 206.972656 C 64.203125 206.972656 64.6875 211.933594 64.5 214 C 64.308594 216.066406 62.390625 224.484375 62.390625 224.484375 L 60.996094 224.207031 C 60.996094 224.207031 61.058594 218.492188 62.242188 214.273438 C 62.242188 214.273438 59.5625 202.523438 62.242188 201.953125 C 64.015625 201.574219 64.203125 206.972656 64.203125 206.972656 Z M 64.203125 206.972656 " fill-opacity="1" fill-rule="nonzero"/><path fill="#e2aa52" d="M 60.996094 224.207031 L 60.996094 224.695312 L 62.304688 225.304688 L 63.277344 225.136719 L 62.746094 224.882812 C 62.746094 224.882812 62.410156 224.671875 62.367188 224.460938 C 62.367188 224.273438 60.996094 224.207031 60.996094 224.207031 Z M 60.996094 224.207031 " fill-opacity="1" fill-rule="nonzero"/><path fill="#263156" d="M 60.996094 224.355469 C 60.996094 224.355469 61.925781 225.410156 62.769531 224.882812 C 62.769531 224.882812 63.929688 225.199219 63.886719 225.558594 C 63.84375 225.917969 63.0625 225.726562 63.0625 225.726562 L 60.890625 225.453125 C 60.871094 225.453125 60.742188 224.949219 60.996094 224.355469 Z M 60.996094 224.355469 " fill-opacity="1" fill-rule="nonzero"/><path fill="#263156" d="M 53.464844 222.691406 C 53.464844 222.691406 54.179688 223.890625 55.089844 223.554688 C 55.089844 223.554688 56.164062 224.082031 56.058594 224.441406 C 55.953125 224.777344 55.214844 224.441406 55.214844 224.441406 L 53.125 223.722656 C 53.125 223.722656 53.125 223.195312 53.464844 222.691406 Z M 53.464844 222.691406 " fill-opacity="1" fill-rule="nonzero"/><path fill="#263156" d="M 56.753906 200.667969 C 56.753906 200.667969 55.910156 202.671875 56.292969 205.390625 C 56.671875 208.15625 56.859375 210.730469 56.082031 213.554688 C 55.699219 214.96875 54.941406 216.953125 54.941406 216.953125 C 54.941406 216.953125 60.617188 219.378906 64.203125 218.238281 C 64.203125 218.238281 64.941406 215.136719 65.027344 212.183594 C 65.109375 209.230469 63.949219 202.964844 63.613281 200.773438 C 63.277344 198.601562 56.753906 200.667969 56.753906 200.667969 Z M 56.753906 200.667969 " fill-opacity="1" fill-rule="nonzero"/><path fill="#e2aa52" d="M 61.269531 190.414062 C 61.019531 190.710938 60.996094 191.109375 61.144531 191.46875 C 61.820312 193.03125 64.332031 199.085938 65.492188 198.664062 C 66.882812 198.15625 64.203125 192.882812 63.382812 191.679688 C 62.664062 190.667969 61.863281 189.71875 61.269531 190.414062 Z M 61.269531 190.414062 " fill-opacity="1" fill-rule="nonzero"/><path fill="#e2aa52" d="M 64.394531 193.242188 L 65.554688 195.730469 L 66.378906 194.316406 L 67.832031 195.539062 C 67.832031 195.539062 66.589844 199.128906 65.554688 198.875 C 64.542969 198.640625 63.277344 196.617188 63.277344 196.617188 L 62.832031 193.390625 Z M 64.394531 193.242188 " fill-opacity="1" fill-rule="nonzero"/><path fill="#e2aa52" d="M 65.679688 198.789062 C 66.039062 198.746094 66.335938 198.472656 66.503906 198.15625 C 67.199219 196.59375 69.667969 191.027344 69.164062 190.476562 C 68.59375 189.84375 64.648438 197.753906 64.878906 198.15625 C 65.046875 198.429688 65.195312 198.851562 65.679688 198.789062 Z M 65.679688 198.789062 " fill-opacity="1" fill-rule="nonzero"/><path fill="#e2aa52" d="M 67.855469 195.539062 L 69.183594 191.660156 L 68.171875 191.027344 L 66.378906 194.316406 " fill-opacity="1" fill-rule="nonzero"/><path fill="#e25469" d="M 68.339844 194.589844 C 68.339844 194.589844 66.839844 198.957031 65.785156 199.0625 C 65.742188 199.0625 65.722656 199.0625 65.679688 199.0625 C 64.710938 199 63.488281 197.039062 62.8125 195.816406 C 62.496094 195.246094 62.304688 194.824219 62.304688 194.824219 C 62.007812 194.234375 61.796875 193.746094 61.652344 193.453125 C 61.125 192.355469 60.300781 190.6875 61.460938 189.992188 C 62.640625 189.316406 63.929688 192.144531 64.394531 193.03125 C 64.4375 193.113281 64.476562 193.179688 64.519531 193.285156 L 65.597656 195.476562 L 66.652344 193.601562 Z M 68.339844 194.589844 " fill-opacity="1" fill-rule="nonzero"/><path fill="#e5e1f9" d="M 66.628906 193.683594 L 68.316406 194.65625 C 68.359375 194.675781 68.421875 194.65625 68.421875 194.613281 L 68.570312 194.273438 C 68.59375 194.234375 68.570312 194.191406 68.527344 194.167969 L 66.882812 193.21875 C 66.839844 193.199219 66.800781 193.21875 66.777344 193.242188 L 66.609375 193.535156 C 66.589844 193.601562 66.589844 193.640625 66.628906 193.683594 Z M 66.628906 193.683594 " fill-opacity="1" fill-rule="nonzero"/><path fill="#e2aa52" d="M 70.324219 190.6875 L 70.046875 191.152344 C 69.859375 191.363281 69.753906 191.554688 69.5 191.679688 L 68.78125 191.953125 L 68.191406 191.175781 L 68.128906 191.070312 L 68.277344 190.6875 L 68.316406 190.605469 C 68.359375 190.476562 68.445312 190.371094 68.527344 190.289062 L 69.035156 190.015625 C 69.035156 190.015625 69.203125 190.054688 68.972656 190.289062 C 68.910156 190.332031 68.886719 190.4375 68.867188 190.542969 C 68.867188 190.5625 68.867188 190.5625 68.867188 190.582031 L 69.140625 190.394531 L 69.816406 189.992188 C 69.984375 189.886719 70.28125 189.910156 70.40625 190.097656 C 70.386719 190.078125 70.554688 190.394531 70.324219 190.6875 Z M 70.324219 190.6875 " fill-opacity="1" fill-rule="nonzero"/><path fill="#e2aa52" d="M 58.738281 188.050781 L 60.53125 188.050781 L 60.53125 190.984375 L 58.738281 190.984375 Z M 58.738281 188.050781 " fill-opacity="1" fill-rule="nonzero"/><path fill="#263156" d="M 58.738281 187.925781 L 58.738281 188.433594 C 59.097656 188.558594 59.667969 189.128906 59.941406 189.128906 C 60.214844 189.128906 60.40625 189 60.511719 188.894531 L 60.511719 188.199219 L 59.203125 187.925781 Z M 58.738281 187.925781 " fill-opacity="1" fill-rule="nonzero"/><path fill="#e2aa52" d="M 57.980469 186.300781 C 57.980469 187.460938 59.371094 188.9375 60.34375 188.917969 C 61.082031 188.917969 61.503906 187.460938 61.503906 186.300781 C 61.503906 185.140625 60.722656 184.191406 59.730469 184.191406 C 58.78125 184.191406 57.980469 185.140625 57.980469 186.300781 Z M 57.980469 186.300781 " fill-opacity="1" fill-rule="nonzero"/><path fill="#263156" d="M 61.058594 185.480469 C 61.058594 185.480469 60.828125 185.773438 60.386719 186.007812 C 60.152344 186.132812 59.792969 186.324219 59.519531 186.429688 C 58.65625 186.746094 58.78125 188.074219 58.78125 188.074219 C 58.78125 188.074219 57.304688 187.082031 58.105469 185.203125 C 58.738281 183.683594 60.890625 184.128906 61.058594 184.84375 C 61.058594 184.84375 61.734375 185.140625 61.546875 186.046875 C 61.523438 186.027344 61.441406 185.5625 61.058594 185.480469 Z M 61.058594 185.480469 " fill-opacity="1" fill-rule="nonzero"/><path fill="#263156" d="M 58.128906 184.738281 C 58.0625 184.699219 58 184.675781 57.9375 184.632812 C 57.496094 184.421875 57.03125 184.253906 56.542969 184.445312 C 55.996094 184.632812 55.785156 185.160156 55.722656 185.691406 C 55.679688 186.027344 55.722656 186.34375 55.722656 186.679688 C 55.742188 186.996094 55.679688 187.335938 55.617188 187.652344 C 55.53125 188.15625 55.300781 188.707031 55.449219 189.210938 C 55.574219 189.699219 56.082031 190.035156 56.566406 190.054688 C 57.136719 190.054688 57.453125 189.550781 57.558594 189.042969 C 57.621094 188.707031 57.578125 188.347656 57.496094 188.011719 C 57.410156 187.695312 57.285156 187.378906 57.285156 187.039062 C 57.285156 186.640625 57.390625 186.21875 57.640625 185.902344 " fill-opacity="1" fill-rule="nonzero"/><path fill="#e25469" d="M 58.296875 184.84375 C 58.296875 184.84375 57.980469 185.332031 57.894531 185.964844 L 57.621094 185.921875 C 57.621094 185.921875 57.875 184.929688 58.105469 184.761719 Z M 58.296875 184.84375 " fill-opacity="1" fill-rule="nonzero"/><path fill="#e5e1f9" d="M 63.210938 197.945312 C 63.382812 199.65625 63.527344 200.289062 63.527344 200.289062 C 63.527344 200.289062 61.566406 200.582031 59.5 200.539062 C 58.484375 200.519531 57.472656 200.394531 56.628906 200.117188 C 56.628906 200.117188 56.777344 199.042969 56.671875 197.121094 C 56.648438 196.53125 56.566406 195.835938 56.460938 195.078125 C 56.355469 194.296875 56.25 193.472656 56.1875 192.714844 C 56.101562 191.785156 56.058594 190.941406 56.164062 190.414062 C 56.3125 189.632812 58.71875 189.316406 58.71875 189.316406 C 58.71875 189.316406 59.6875 190.457031 60.238281 190.121094 C 60.449219 189.992188 60.53125 189.402344 60.53125 189.402344 C 61.417969 189.527344 61.714844 189.71875 61.96875 189.992188 C 62.8125 190.921875 63.910156 193.09375 63.910156 194.464844 C 63.910156 196.046875 63.042969 196.257812 63.210938 197.945312 Z M 63.210938 197.945312 " fill-opacity="1" fill-rule="nonzero"/><path fill="#e25469" d="M 60.554688 189.359375 C 60.554688 189.359375 61.925781 189.296875 62.664062 190.878906 C 63.402344 192.460938 64.035156 193.390625 63.992188 194.65625 C 63.949219 195.921875 63.148438 196.765625 63.359375 198.136719 C 63.570312 199.527344 63.78125 200.246094 63.867188 201.257812 C 63.929688 202.269531 64.054688 202.839844 64.054688 202.839844 C 64.054688 202.839844 62.832031 203.304688 62.429688 203.03125 C 62.429688 203.03125 61.925781 199.464844 62.09375 197.585938 C 62.285156 195.710938 62.410156 194.085938 61.96875 192.882812 C 61.441406 191.449219 60.660156 189.632812 60.554688 189.359375 Z M 60.554688 189.359375 " fill-opacity="1" fill-rule="nonzero"/><path fill="#263156" d="M 63.613281 196.320312 L 63.570312 196.300781 C 63.59375 196.238281 63.613281 196.171875 63.632812 196.109375 C 63.78125 195.644531 63.949219 195.183594 63.972656 194.632812 C 64.015625 193.621094 63.613281 192.820312 63.0625 191.722656 C 62.9375 191.449219 62.789062 191.175781 62.640625 190.878906 L 62.683594 190.859375 C 62.832031 191.152344 62.957031 191.449219 63.105469 191.703125 C 63.65625 192.796875 64.054688 193.601562 64.015625 194.632812 C 63.992188 195.183594 63.84375 195.667969 63.675781 196.132812 C 63.65625 196.195312 63.632812 196.257812 63.613281 196.320312 Z M 63.613281 196.320312 " fill-opacity="1" fill-rule="nonzero"/><path fill="#e25469" d="M 61.96875 202.925781 C 61.480469 203.621094 55.46875 203.28125 55.46875 203.28125 C 55.976562 200.878906 56.523438 199.273438 56.585938 197.375 C 56.609375 196.953125 56.585938 196.46875 56.523438 195.941406 C 56.355469 194.148438 55.910156 191.996094 55.976562 190.835938 C 55.976562 190.792969 55.976562 190.773438 55.996094 190.753906 C 56.1875 189.359375 58.695312 189.277344 58.695312 189.277344 C 58.695312 189.277344 60.597656 191.660156 61.082031 192.988281 C 61.523438 194.191406 61.25 196.089844 61.207031 197.734375 C 61.207031 197.734375 61.207031 197.734375 61.207031 197.753906 C 61.207031 197.925781 61.207031 198.09375 61.207031 198.261719 C 61.1875 200.054688 61.96875 202.925781 61.96875 202.925781 Z M 61.96875 202.925781 " fill-opacity="1" fill-rule="nonzero"/><path fill="#e2aa52" d="M 56.714844 190.394531 C 56.398438 190.625 56.292969 191.027344 56.355469 191.386719 C 56.648438 193.050781 57.746094 199.507812 58.992188 199.359375 C 60.449219 199.191406 59.035156 193.453125 58.484375 192.082031 C 58.042969 190.941406 57.472656 189.84375 56.714844 190.394531 Z M 56.714844 190.394531 " fill-opacity="1" fill-rule="nonzero"/><path fill="#e2aa52" d="M 59.792969 199.253906 C 60.152344 199.234375 60.46875 198.980469 60.636719 198.640625 C 61.417969 197.121094 64.140625 191.660156 63.65625 191.089844 C 63.105469 190.4375 58.800781 198.15625 59.011719 198.558594 C 59.160156 198.875 59.289062 199.296875 59.792969 199.253906 Z M 59.792969 199.253906 " fill-opacity="1" fill-rule="nonzero"/><path fill="#e2aa52" d="M 64.4375 190.5 L 64.394531 191.027344 C 64.351562 191.152344 64.351562 191.257812 64.308594 191.363281 C 64.265625 191.492188 64.226562 191.617188 64.140625 191.742188 L 63.613281 192.3125 L 62.746094 191.871094 L 62.640625 191.785156 L 62.578125 191.28125 C 62.558594 191.152344 62.578125 191.027344 62.640625 190.898438 L 62.980469 190.4375 C 62.980469 190.4375 63.148438 190.414062 63.042969 190.710938 C 63 190.792969 63.042969 190.921875 63.0625 191.027344 L 63.148438 190.859375 L 63.210938 190.753906 L 63.632812 190.097656 C 63.738281 189.929688 64.015625 189.804688 64.226562 189.929688 C 64.226562 189.929688 64.5 190.121094 64.4375 190.5 Z M 64.4375 190.5 " fill-opacity="1" fill-rule="nonzero"/><path fill="#263156" d="M 66.019531 189.527344 L 61.902344 191.175781 C 61.820312 191.195312 61.796875 191.28125 61.820312 191.363281 C 61.839844 191.425781 61.902344 191.449219 61.96875 191.449219 C 61.988281 191.449219 62.007812 191.449219 62.03125 191.449219 L 66.144531 189.804688 L 66.417969 189.570312 Z M 66.019531 189.527344 " fill-opacity="1" fill-rule="nonzero"/><path fill="#e2aa52" d="M 64.4375 190.5 L 64.394531 191.027344 C 64.351562 191.152344 64.351562 191.257812 64.308594 191.363281 L 63.105469 191.34375 L 63.0625 191.070312 L 63.234375 190.773438 L 63.65625 190.121094 C 63.761719 189.949219 64.035156 189.824219 64.246094 189.949219 C 64.226562 189.929688 64.5 190.121094 64.4375 190.5 Z M 64.4375 190.5 " fill-opacity="1" fill-rule="nonzero"/><path fill="#e2aa52" d="M 61.863281 196.257812 L 63.550781 192.269531 L 62.558594 191.765625 L 60.46875 195.054688 Z M 61.863281 196.257812 " fill-opacity="1" fill-rule="nonzero"/><path fill="#263156" d="M 69.648438 193.199219 L 67.453125 193.410156 L 69.984375 188.011719 L 72.179688 187.800781 Z M 69.648438 193.199219 " fill-opacity="1" fill-rule="nonzero"/><path fill="#e2aa52" d="M 68.972656 190.265625 C 68.910156 190.308594 68.886719 190.414062 68.867188 190.519531 L 68.488281 190.921875 L 68.296875 190.667969 L 68.339844 190.582031 C 68.382812 190.457031 68.464844 190.351562 68.550781 190.265625 L 69.054688 189.992188 C 69.035156 189.992188 69.203125 190.054688 68.972656 190.265625 Z M 68.972656 190.265625 " fill-opacity="1" fill-rule="nonzero"/><path fill="#e25469" d="M 60.933594 194.148438 L 59.6875 195.835938 L 59.203125 193.851562 C 59.183594 193.746094 59.160156 193.664062 59.140625 193.578125 C 58.90625 192.628906 58.191406 189.527344 56.859375 189.824219 C 55.449219 190.140625 56.121094 192.1875 56.375 193.390625 C 56.4375 193.707031 56.566406 194.234375 56.714844 194.867188 C 56.714844 194.867188 58.042969 199.824219 59.414062 199.90625 C 60.511719 199.992188 62.496094 195.097656 62.496094 195.097656 Z M 60.933594 194.148438 " fill-opacity="1" fill-rule="nonzero"/><path fill="#263156" d="M 59.414062 199.949219 C 59.414062 199.949219 59.394531 199.949219 59.394531 199.949219 C 58.023438 199.867188 56.714844 195.097656 56.671875 194.886719 L 56.734375 194.867188 C 56.753906 194.90625 58.085938 199.800781 59.414062 199.886719 C 59.414062 199.886719 59.433594 199.886719 59.433594 199.886719 C 60.511719 199.886719 62.429688 195.140625 62.453125 195.078125 L 62.496094 195.097656 C 62.496094 195.117188 61.988281 196.34375 61.375 197.542969 C 60.53125 199.148438 59.878906 199.949219 59.414062 199.949219 Z M 59.414062 199.949219 " fill-opacity="1" fill-rule="nonzero"/><path fill="#263156" d="M 59.667969 195.855469 C 59.644531 195.855469 59.644531 195.855469 59.644531 195.835938 L 58.738281 192.1875 L 58.800781 192.164062 L 59.6875 195.75 L 60.914062 194.105469 L 60.953125 194.148438 L 59.710938 195.835938 C 59.6875 195.855469 59.6875 195.855469 59.667969 195.855469 Z M 59.667969 195.855469 " fill-opacity="1" fill-rule="nonzero"/><path fill="#e5e1f9" d="M 60.722656 194.316406 L 62.410156 195.351562 L 62.621094 194.867188 L 61.039062 193.894531 Z M 60.722656 194.316406 " fill-opacity="1" fill-rule="nonzero"/><path fill="#a386f4" d="M 66.566406 172.546875 C 66.566406 172.769531 66.488281 172.957031 66.332031 173.113281 C 66.175781 173.269531 65.988281 173.347656 65.765625 173.347656 C 65.542969 173.347656 65.355469 173.269531 65.199219 173.113281 C 65.042969 172.957031 64.964844 172.769531 64.964844 172.546875 C 64.964844 172.324219 65.042969 172.136719 65.199219 171.980469 C 65.355469 171.824219 65.542969 171.746094 65.765625 171.746094 C 65.988281 171.746094 66.175781 171.824219 66.332031 171.980469 C 66.488281 172.136719 66.566406 172.324219 66.566406 172.546875 Z M 66.566406 172.546875 " fill-opacity="1" fill-rule="nonzero"/><path fill="#e2aa52" d="M 132.039062 202.628906 C 132.082031 202.714844 132.1875 202.714844 132.355469 202.628906 C 132.523438 202.542969 132.734375 202.417969 132.964844 202.226562 C 133.261719 201.996094 133.621094 201.699219 134 201.34375 C 135.730469 199.761719 137.96875 197.3125 137.925781 197.058594 C 137.839844 196.679688 137.902344 196.363281 137.082031 196.449219 C 136.933594 196.46875 136.804688 196.53125 136.699219 196.636719 C 136.195312 197.1875 134.421875 199.105469 133.21875 200.644531 C 132.964844 200.960938 132.734375 201.277344 132.542969 201.53125 C 132.1875 202.058594 131.976562 202.480469 132.039062 202.628906 Z M 132.039062 202.628906 " fill-opacity="1" fill-rule="nonzero"/><path fill="#e2aa52" d="M 130.667969 203.09375 C 130.667969 203.09375 130.6875 203.113281 130.6875 203.113281 L 131.066406 203.28125 C 131.109375 203.324219 131.34375 203.347656 131.40625 203.324219 L 131.722656 203.261719 C 131.996094 203.175781 132.269531 203.050781 132.503906 202.859375 L 132.964844 202.355469 L 133.070312 202.25 L 132.945312 202.101562 L 132.585938 201.636719 L 132.503906 201.53125 L 132.4375 201.53125 L 131.976562 201.488281 C 131.828125 201.46875 131.699219 201.488281 131.574219 201.554688 L 131.089844 201.910156 C 131.089844 201.910156 131.195312 201.996094 131.382812 201.953125 C 131.46875 201.933594 131.59375 201.953125 131.722656 201.976562 L 131.425781 202.144531 L 130.730469 202.609375 C 130.582031 202.714844 130.539062 202.945312 130.667969 203.09375 Z M 130.667969 203.09375 " fill-opacity="1" fill-rule="nonzero"/><path fill="#e2aa52" d="M 135.011719 190.859375 C 135.371094 190.835938 135.328125 190.414062 135.5 190.710938 C 136.257812 192.058594 138.769531 196.636719 137.796875 197.25 C 136.660156 197.964844 134.695312 193.789062 134.273438 192.503906 C 133.914062 191.425781 134.167969 190.898438 135.011719 190.859375 Z M 135.011719 190.859375 " fill-opacity="1" fill-rule="nonzero"/><path fill="#e2aa52" d="M 135.394531 195.203125 C 135.394531 195.203125 136.171875 196.59375 136.195312 196.765625 C 136.195312 196.933594 132.503906 201.511719 132.503906 201.511719 L 133.070312 202.25 C 133.070312 202.25 138.09375 198.28125 138.285156 197.058594 C 138.453125 195.835938 136.953125 193.324219 136.953125 193.324219 Z M 135.394531 195.203125 " fill-opacity="1" fill-rule="nonzero"/><path fill="#e25469" d="M 133.957031 191.847656 C 133.957031 192.25 134.0625 192.628906 134.234375 192.988281 C 134.378906 193.304688 134.613281 193.789062 134.84375 194.316406 C 134.84375 194.316406 134.84375 194.339844 134.84375 194.339844 C 134.867188 194.402344 134.90625 194.464844 134.929688 194.507812 C 135.011719 194.695312 135.097656 194.867188 135.183594 195.054688 C 135.222656 195.140625 135.265625 195.222656 135.308594 195.308594 L 135.371094 195.265625 L 136.511719 194.550781 L 137.460938 193.9375 C 136.742188 192.335938 136.152344 191.363281 135.773438 190.792969 C 135.519531 190.394531 134.992188 190.265625 134.613281 190.519531 C 134.296875 190.730469 133.980469 191.132812 133.957031 191.847656 Z M 133.957031 191.847656 " fill-opacity="1" fill-rule="nonzero"/><path fill="#263156" d="M 135.394531 195.246094 L 136.53125 194.527344 L 136.027344 192.375 C 136.027344 192.398438 135.644531 194.167969 135.394531 195.246094 Z M 135.394531 195.246094 " fill-opacity="1" fill-rule="nonzero"/><path fill="#e2aa52" d="M 133.851562 190.476562 L 133.808594 189.421875 C 133.808594 189.421875 135.394531 186.851562 134.105469 186.175781 C 132.820312 185.5 131.617188 186.554688 131.617188 187.714844 C 131.617188 188.894531 131.699219 189.171875 132.25 189.234375 L 132.144531 190.183594 " fill-opacity="1" fill-rule="nonzero"/><path fill="#e2aa52" d="M 130.730469 202.25 C 131.53125 202.332031 132.101562 203.136719 131.996094 203.980469 C 131.890625 204.652344 131.679688 205.539062 131.195312 206.59375 C 130.011719 209.253906 129.316406 212.648438 128.175781 212.816406 C 127.039062 212.988281 126.636719 210.980469 127.3125 208.21875 C 127.921875 205.707031 127.988281 202.566406 128.808594 202.292969 C 129.210938 202.144531 130.035156 202.1875 130.730469 202.25 Z M 130.730469 202.25 " fill-opacity="1" fill-rule="nonzero"/><path fill="#e2aa52" d="M 129.402344 213.070312 C 129.402344 213.070312 129.335938 217.101562 128.347656 222.878906 L 126.617188 222.753906 C 126.617188 222.753906 126.511719 215.117188 126.890625 212.753906 C 127.269531 210.390625 129.402344 213.070312 129.402344 213.070312 Z M 129.402344 213.070312 " fill-opacity="1" fill-rule="nonzero"/><path fill="#e2aa52" d="M 133.640625 202.164062 C 134.445312 202.058594 135.203125 202.671875 135.289062 203.535156 C 135.351562 204.210938 135.351562 205.117188 135.140625 206.257812 C 134.632812 209.125 134.800781 212.585938 133.726562 213.027344 C 132.671875 213.472656 131.785156 211.617188 131.765625 208.765625 C 131.742188 206.195312 131.046875 203.113281 131.765625 202.648438 C 132.144531 202.4375 132.945312 202.269531 133.640625 202.164062 Z M 133.640625 202.164062 " fill-opacity="1" fill-rule="nonzero"/><path fill="#e2aa52" d="M 135.078125 213.34375 C 135.078125 213.34375 136.046875 218.617188 135.984375 222.625 L 134.316406 222.753906 C 134.316406 222.753906 132.585938 214.800781 132.480469 213.367188 C 132.398438 211.933594 135.078125 213.34375 135.078125 213.34375 Z M 135.078125 213.34375 " fill-opacity="1" fill-rule="nonzero"/><path fill="#e2aa52" d="M 132.902344 212.3125 C 134.761719 210.539062 136.066406 220.832031 135.898438 223.679688 C 135.730469 226.53125 134.800781 224.335938 133.769531 219.949219 C 132.734375 215.601562 132.164062 213.007812 132.902344 212.3125 Z M 132.902344 212.3125 " fill-opacity="1" fill-rule="nonzero"/><path fill="#e2aa52" d="M 128.347656 222.878906 L 128.21875 224.273438 L 126.59375 224.273438 L 126.617188 222.753906 Z M 128.347656 222.878906 " fill-opacity="1" fill-rule="nonzero"/><path fill="#e2aa52" d="M 135.984375 222.625 L 136.109375 223.996094 L 134.527344 224.25 L 134.316406 222.753906 Z M 135.984375 222.625 " fill-opacity="1" fill-rule="nonzero"/><g clip-path="url(#54092e8a0c)"><path fill="#263156" d="M 128.242188 226.023438 L 128.242188 223.976562 C 128.242188 223.976562 127.605469 224.230469 126.59375 223.914062 C 126.59375 223.914062 125.855469 224.695312 125.136719 224.757812 C 124.421875 224.820312 124.0625 225.136719 124.042969 225.558594 C 124.019531 226.296875 128.242188 226.023438 128.242188 226.023438 Z M 128.242188 226.023438 " fill-opacity="1" fill-rule="nonzero"/></g><g clip-path="url(#8925b722b5)"><path fill="#263156" d="M 136.109375 223.808594 C 136.109375 223.808594 134.90625 224.082031 134.484375 223.976562 C 134.484375 223.976562 134.378906 224.632812 134.339844 224.863281 C 134.273438 225.09375 134.234375 225.265625 133.832031 225.433594 C 133.386719 225.621094 133.386719 226.234375 133.832031 226.214844 C 134.273438 226.191406 136.425781 225.8125 136.425781 225.8125 Z M 136.109375 223.808594 " fill-opacity="1" fill-rule="nonzero"/></g><path fill="#263156" d="M 128.386719 201.910156 C 128.386719 201.910156 126.445312 210.074219 126.40625 212.375 C 126.363281 214.675781 126.40625 222.921875 126.40625 222.921875 L 128.621094 222.984375 L 129.863281 212.269531 C 129.863281 212.269531 132.734375 203.746094 132.839844 202.671875 C 132.988281 201.59375 128.386719 201.910156 128.386719 201.910156 Z M 128.386719 201.910156 " fill-opacity="1" fill-rule="nonzero"/><path fill="#263156" d="M 136.003906 202.882812 C 136.003906 202.882812 136.066406 203.558594 135.960938 205.097656 C 135.855469 206.636719 135.539062 212.058594 135.582031 212.542969 C 135.625 213.007812 136.257812 223.046875 136.257812 223.046875 L 134 223.363281 C 134 223.363281 132.1875 213.9375 131.953125 212.671875 C 131.722656 211.402344 131.636719 202.480469 131.636719 202.480469 Z M 136.003906 202.882812 " fill-opacity="1" fill-rule="nonzero"/><path fill="#e25469" d="M 128.242188 201.933594 C 128.242188 201.933594 130.644531 203.324219 133.304688 203.386719 C 134.191406 203.410156 135.117188 203.28125 136.003906 202.882812 C 136.003906 202.882812 135.941406 198.621094 136.046875 196.34375 C 136.152344 194.0625 136.40625 190.984375 135.476562 190.371094 C 135.078125 190.121094 134.339844 190.054688 133.851562 190.035156 C 133.746094 190.035156 133.558594 190.140625 133.199219 190.121094 C 132.609375 190.121094 132.207031 189.992188 132.207031 189.992188 C 131.363281 189.992188 129.613281 190.183594 129.253906 191.765625 C 129.230469 191.890625 129.210938 192.039062 129.191406 192.1875 C 129.191406 192.207031 129.191406 192.25 129.191406 192.292969 L 129.191406 192.3125 C 129.191406 192.398438 129.191406 192.460938 129.191406 192.546875 C 129.191406 192.628906 129.191406 192.714844 129.191406 192.796875 C 129.191406 192.925781 129.191406 193.074219 129.167969 193.199219 C 129.167969 193.285156 129.167969 193.390625 129.167969 193.472656 C 129.167969 193.917969 129.148438 194.378906 129.125 194.867188 C 129.019531 197.375 128.851562 200.308594 128.242188 201.933594 Z M 128.242188 201.933594 " fill-opacity="1" fill-rule="nonzero"/><path fill="#263156" d="M 129.105469 194.886719 L 131.636719 192.628906 L 129.148438 193.472656 C 129.125 193.917969 129.125 194.402344 129.105469 194.886719 Z M 129.105469 194.886719 " fill-opacity="1" fill-rule="nonzero"/><path fill="#e2aa52" d="M 119.503906 189.84375 C 119.421875 189.886719 119.441406 190.015625 119.546875 190.160156 C 119.632812 190.308594 119.800781 190.5 120.011719 190.730469 C 120.265625 191.003906 120.601562 191.320312 120.980469 191.660156 C 122.734375 193.21875 125.390625 195.203125 125.644531 195.117188 C 126.003906 194.992188 126.339844 195.035156 126.171875 194.234375 C 126.152344 194.085938 126.066406 193.957031 125.941406 193.875 C 125.351562 193.429688 123.261719 191.847656 121.613281 190.816406 C 121.277344 190.605469 120.941406 190.394531 120.664062 190.246094 C 120.074219 189.929688 119.652344 189.761719 119.503906 189.84375 Z M 119.503906 189.84375 " fill-opacity="1" fill-rule="nonzero"/><path fill="#e2aa52" d="M 119 189.210938 C 118.660156 189.507812 118.871094 189.804688 118.871094 189.804688 C 118.957031 190.035156 119.273438 190.265625 119.441406 190.4375 C 119.464844 190.457031 119.484375 190.476562 119.527344 190.5 L 119.96875 190.835938 L 120.074219 190.921875 L 120.203125 190.792969 L 120.582031 190.4375 L 120.664062 190.351562 L 120.664062 189.886719 C 120.664062 189.761719 120.625 189.65625 120.582031 189.550781 L 120.222656 189.171875 C 120.222656 189.171875 120.160156 189.277344 120.222656 189.445312 C 120.242188 189.527344 120.242188 189.632812 120.222656 189.738281 L 120.054688 189.507812 L 119.84375 189.277344 C 119.695312 189.105469 119.316406 188.917969 119 189.210938 Z M 119 189.210938 " fill-opacity="1" fill-rule="nonzero"/><path fill="#e2aa52" d="M 131.511719 191.597656 C 131.574219 191.933594 131.996094 191.871094 131.699219 192.082031 C 130.433594 192.988281 126.128906 195.921875 125.433594 195.035156 C 124.609375 193.980469 128.578125 191.597656 129.800781 191.046875 C 130.835938 190.582031 131.382812 190.773438 131.511719 191.597656 Z M 131.511719 191.597656 " fill-opacity="1" fill-rule="nonzero"/><path fill="#e2aa52" d="M 128.175781 191.847656 L 125.960938 193.21875 L 120.644531 190.246094 L 120.054688 190.921875 C 120.054688 190.921875 122.777344 193.429688 123.957031 194.253906 C 125.136719 195.078125 125.328125 195.328125 126.023438 195.371094 C 126.722656 195.414062 129.507812 193.8125 129.507812 193.8125 Z M 128.175781 191.847656 " fill-opacity="1" fill-rule="nonzero"/><path fill="#e25469" d="M 128.070312 191.785156 L 129.335938 193.957031 C 130.285156 193.496094 131.195312 192.96875 131.636719 192.628906 C 131.996094 192.335938 132.121094 191.554688 131.828125 191.195312 C 131.574219 190.878906 131.277344 189.972656 130.601562 190.246094 C 129.632812 190.648438 128.410156 191.574219 128.070312 191.785156 Z M 128.070312 191.785156 " fill-opacity="1" fill-rule="nonzero"/><path fill="#e5e1f9" d="M 133.832031 189.886719 L 133.9375 190.054688 C 133.9375 190.054688 133.515625 190.246094 132.988281 190.203125 C 132.480469 190.140625 132.25 190.097656 132.015625 189.992188 L 132.164062 189.84375 C 132.164062 189.824219 133.136719 190.097656 133.832031 189.886719 Z M 133.832031 189.886719 " fill-opacity="1" fill-rule="nonzero"/><path fill="#263156" d="M 131.089844 186.535156 C 131.089844 186.449219 131.132812 186.34375 131.195312 186.28125 C 131.152344 186.195312 131.132812 186.089844 131.132812 185.984375 C 131.132812 185.921875 131.132812 185.878906 131.152344 185.835938 C 131.132812 185.753906 131.109375 185.667969 131.109375 185.585938 C 131.109375 185.160156 131.449219 184.824219 131.871094 184.824219 C 132.039062 184.824219 132.207031 184.886719 132.332031 184.992188 C 132.355469 184.992188 132.355469 184.992188 132.375 184.992188 C 132.542969 184.992188 132.671875 185.097656 132.714844 185.246094 C 132.753906 185.246094 132.796875 185.226562 132.839844 185.226562 C 133.050781 185.226562 133.242188 185.308594 133.367188 185.457031 C 133.429688 185.332031 133.535156 185.246094 133.683594 185.246094 C 133.832031 185.246094 133.957031 185.332031 134 185.457031 C 134.042969 185.457031 134.0625 185.4375 134.105469 185.4375 C 134.527344 185.4375 134.867188 185.773438 134.867188 186.195312 C 134.867188 186.21875 134.867188 186.21875 134.867188 186.238281 C 134.949219 186.257812 135.011719 186.34375 135.011719 186.449219 C 135.011719 186.511719 134.992188 186.554688 134.949219 186.597656 C 134.992188 186.703125 135.035156 186.808594 135.035156 186.933594 C 135.035156 187.125 134.949219 187.3125 134.824219 187.441406 C 134.90625 187.566406 134.949219 187.714844 134.949219 187.863281 C 134.949219 188.199219 134.71875 188.496094 134.402344 188.578125 C 134.402344 188.707031 134.316406 188.832031 134.210938 188.875 C 134.234375 188.917969 134.253906 188.960938 134.253906 189 C 134.253906 189.128906 134.148438 189.234375 134.019531 189.234375 C 134 189.234375 133.957031 189.234375 133.9375 189.210938 C 133.851562 189.316406 133.789062 189.359375 133.789062 189.359375 C 133.535156 189.359375 133.261719 189.277344 133.070312 189.128906 C 133.050781 189.148438 133.007812 189.148438 132.964844 189.148438 C 132.839844 189.148438 132.734375 189.042969 132.734375 188.917969 C 132.734375 188.855469 132.753906 188.8125 132.796875 188.769531 C 132.796875 188.75 132.777344 188.75 132.777344 188.726562 C 132.585938 188.179688 132.566406 188.15625 132.566406 187.695312 C 132.585938 187.230469 131.996094 187.355469 131.511719 187.144531 C 131.382812 187.101562 131.320312 186.957031 131.277344 186.765625 C 131.171875 186.808594 131.089844 186.679688 131.089844 186.535156 Z M 131.089844 186.535156 " fill-opacity="1" fill-rule="nonzero"/><g fill="#000000" fill-opacity="1"><g transform="translate(150.744158, 184.323797)"><g><path d="M 10.46875 -3.421875 C 10.988281 -3.421875 11.550781 -3.5 12.15625 -3.65625 C 12.757812 -3.820312 13.28125 -4.09375 13.71875 -4.46875 C 14.164062 -4.851562 14.390625 -5.367188 14.390625 -6.015625 C 14.390625 -6.617188 14.15625 -7.101562 13.6875 -7.46875 C 13.226562 -7.832031 12.617188 -8.132812 11.859375 -8.375 C 11.109375 -8.613281 10.285156 -8.832031 9.390625 -9.03125 C 8.492188 -9.238281 7.59375 -9.488281 6.6875 -9.78125 C 5.78125 -10.070312 4.953125 -10.453125 4.203125 -10.921875 C 3.453125 -11.398438 2.84375 -12.015625 2.375 -12.765625 C 1.914062 -13.523438 1.6875 -14.484375 1.6875 -15.640625 C 1.6875 -16.785156 1.921875 -17.769531 2.390625 -18.59375 C 2.867188 -19.425781 3.5 -20.117188 4.28125 -20.671875 C 5.070312 -21.222656 5.957031 -21.632812 6.9375 -21.90625 C 7.914062 -22.175781 8.898438 -22.3125 9.890625 -22.3125 C 11.398438 -22.3125 12.8125 -22.070312 14.125 -21.59375 C 15.4375 -21.125 16.507812 -20.375 17.34375 -19.34375 C 18.175781 -18.320312 18.613281 -16.972656 18.65625 -15.296875 L 13.96875 -15.296875 C 13.832031 -16.429688 13.429688 -17.21875 12.765625 -17.65625 C 12.097656 -18.101562 11.160156 -18.328125 9.953125 -18.328125 C 9.503906 -18.328125 9.023438 -18.25 8.515625 -18.09375 C 8.015625 -17.945312 7.582031 -17.707031 7.21875 -17.375 C 6.863281 -17.039062 6.6875 -16.59375 6.6875 -16.03125 C 6.6875 -15.46875 6.914062 -15.023438 7.375 -14.703125 C 7.84375 -14.378906 8.453125 -14.109375 9.203125 -13.890625 C 9.960938 -13.679688 10.796875 -13.476562 11.703125 -13.28125 C 12.609375 -13.09375 13.507812 -12.859375 14.40625 -12.578125 C 15.300781 -12.296875 16.125 -11.910156 16.875 -11.421875 C 17.625 -10.941406 18.226562 -10.3125 18.6875 -9.53125 C 19.15625 -8.757812 19.390625 -7.769531 19.390625 -6.5625 C 19.390625 -5.269531 19.128906 -4.171875 18.609375 -3.265625 C 18.097656 -2.359375 17.40625 -1.628906 16.53125 -1.078125 C 15.65625 -0.535156 14.675781 -0.132812 13.59375 0.125 C 12.507812 0.382812 11.40625 0.515625 10.28125 0.515625 C 8.664062 0.515625 7.148438 0.242188 5.734375 -0.296875 C 4.328125 -0.847656 3.1875 -1.695312 2.3125 -2.84375 C 1.4375 -3.988281 0.988281 -5.453125 0.96875 -7.234375 L 5.890625 -7.234375 C 5.953125 -5.921875 6.4375 -4.957031 7.34375 -4.34375 C 8.25 -3.726562 9.289062 -3.421875 10.46875 -3.421875 Z M 10.46875 -3.421875 "/></g></g></g><g fill="#000000" fill-opacity="1"><g transform="translate(177.581192, 184.323797)"><g><path d="M 29.359375 0 L 24.015625 0 L 21.4375 -15.15625 L 17.140625 0 L 12.375 0 L 8.078125 -15.15625 L 5.5 0 L 0.15625 0 L 4.421875 -21.984375 L 10.1875 -21.984375 L 14.78125 -6.5625 L 19.328125 -21.984375 L 25.09375 -21.984375 Z M 29.359375 0 "/></g></g></g><g fill="#000000" fill-opacity="1"><g transform="translate(213.5682, 184.323797)"><g><path d="M 13.90625 -8.40625 L 11.125 -16.234375 L 8.34375 -8.40625 Z M 22.109375 0 L 16.90625 0 L 15.328125 -4.421875 L 6.953125 -4.421875 L 5.359375 0 L 0.15625 0 L 9.078125 -21.984375 L 13.1875 -21.984375 Z M 22.109375 0 "/></g></g></g><g fill="#000000" fill-opacity="1"><g transform="translate(242.312827, 184.323797)"><g><path d="M 6.78125 -7.859375 L 6.78125 0 L 1.9375 0 L 1.9375 -21.984375 L 10.1875 -21.984375 C 11.375 -21.984375 12.476562 -21.6875 13.5 -21.09375 C 14.519531 -20.5 15.34375 -19.671875 15.96875 -18.609375 C 16.59375 -17.554688 16.90625 -16.332031 16.90625 -14.9375 C 16.90625 -13.707031 16.675781 -12.617188 16.21875 -11.671875 C 15.769531 -10.722656 15.164062 -9.945312 14.40625 -9.34375 C 13.65625 -8.738281 12.816406 -8.316406 11.890625 -8.078125 L 18.203125 0 L 12.0625 0 L 6.828125 -7.859375 Z M 9.375 -18.171875 L 6.78125 -18.171875 L 6.78125 -11.671875 L 9.375 -11.671875 C 10.082031 -11.671875 10.742188 -11.945312 11.359375 -12.5 C 11.972656 -13.0625 12.28125 -13.875 12.28125 -14.9375 C 12.28125 -15.945312 11.972656 -16.738281 11.359375 -17.3125 C 10.742188 -17.882812 10.082031 -18.171875 9.375 -18.171875 Z M 9.375 -18.171875 "/></g></g></g><g fill="#000000" fill-opacity="1"><g transform="translate(266.595632, 184.323797)"><g><path d="M 11.28125 -17.59375 L 11.28125 0 L 6.4375 0 L 6.4375 -17.59375 L 0.15625 -17.59375 L 0.15625 -21.984375 L 17.546875 -21.984375 L 17.546875 -17.59375 Z M 11.28125 -17.59375 "/></g></g></g><g fill="#000000" fill-opacity="1"><g transform="translate(157.9473, 216.249991)"><g><path d="M 2.625 0 L 1.359375 0 L 1.359375 -12.296875 L 2.625 -12.296875 Z M 2.625 0 "/></g></g></g><g fill="#000000" fill-opacity="1"><g transform="translate(165.538247, 216.249991)"><g><path d="M 2.625 -9.0625 L 2.625 0 L 1.359375 0 L 1.359375 -13.078125 L 8.265625 -3.25 L 8.265625 -12.296875 L 9.53125 -12.296875 L 9.53125 0.765625 Z M 2.625 -9.0625 "/></g></g></g><g fill="#000000" fill-opacity="1"><g transform="translate(180.032087, 216.249991)"><g><path d="M 5.765625 0.734375 L 0.1875 -12.296875 L 1.5625 -12.296875 L 5.765625 -2.390625 L 9.96875 -12.296875 L 11.328125 -12.296875 Z M 5.765625 0.734375 "/></g></g></g><g fill="#000000" fill-opacity="1"><g transform="translate(195.158397, 216.249991)"><g><path d="M 8.65625 0 L 1.359375 0 L 1.359375 -12.296875 L 8.65625 -12.296875 L 8.65625 -11.125 L 2.625 -11.125 L 2.625 -6.75 L 8.484375 -6.75 L 8.484375 -5.546875 L 2.625 -5.546875 L 2.625 -1.171875 L 8.65625 -1.171875 Z M 8.65625 0 "/></g></g></g><g fill="#000000" fill-opacity="1"><g transform="translate(208.784865, 216.249991)"><g><path d="M 2.625 -9.0625 L 2.625 0 L 1.359375 0 L 1.359375 -13.078125 L 8.265625 -3.25 L 8.265625 -12.296875 L 9.53125 -12.296875 L 9.53125 0.765625 Z M 2.625 -9.0625 "/></g></g></g><g fill="#000000" fill-opacity="1"><g transform="translate(223.278703, 216.249991)"><g><path d="M 0.359375 -11.15625 L 0.359375 -12.328125 L 7.59375 -12.328125 L 7.59375 -11.15625 L 4.609375 -11.15625 L 4.609375 -0.03125 L 3.34375 -0.03125 L 3.34375 -11.15625 Z M 0.359375 -11.15625 "/></g></g></g><g fill="#000000" fill-opacity="1"><g transform="translate(234.845143, 216.249991)"><g><path d="M 12.1875 -6.1875 C 12.1875 -7.570312 11.691406 -8.757812 10.703125 -9.75 C 9.710938 -10.726562 8.519531 -11.21875 7.125 -11.21875 C 5.738281 -11.21875 4.550781 -10.726562 3.5625 -9.75 C 2.570312 -8.757812 2.078125 -7.570312 2.078125 -6.1875 C 2.078125 -4.78125 2.570312 -3.585938 3.5625 -2.609375 C 4.550781 -1.617188 5.738281 -1.125 7.125 -1.125 C 8.519531 -1.125 9.710938 -1.617188 10.703125 -2.609375 C 11.691406 -3.585938 12.1875 -4.78125 12.1875 -6.1875 Z M 13.453125 -6.1875 C 13.453125 -5.3125 13.289062 -4.488281 12.96875 -3.71875 C 12.625 -2.945312 12.171875 -2.28125 11.609375 -1.71875 C 11.023438 -1.132812 10.347656 -0.679688 9.578125 -0.359375 C 8.804688 -0.0234375 7.988281 0.140625 7.125 0.140625 C 6.257812 0.140625 5.445312 -0.0234375 4.6875 -0.359375 C 3.914062 -0.679688 3.242188 -1.132812 2.671875 -1.71875 C 2.097656 -2.28125 1.644531 -2.945312 1.3125 -3.71875 C 0.976562 -4.488281 0.8125 -5.3125 0.8125 -6.1875 C 0.8125 -7.050781 0.976562 -7.867188 1.3125 -8.640625 C 1.644531 -9.410156 2.097656 -10.078125 2.671875 -10.640625 C 3.242188 -11.210938 3.914062 -11.664062 4.6875 -12 C 5.445312 -12.320312 6.257812 -12.484375 7.125 -12.484375 C 7.988281 -12.484375 8.804688 -12.320312 9.578125 -12 C 10.347656 -11.664062 11.023438 -11.210938 11.609375 -10.640625 C 12.171875 -10.078125 12.625 -9.410156 12.96875 -8.640625 C 13.289062 -7.867188 13.453125 -7.050781 13.453125 -6.1875 Z M 13.453125 -6.1875 "/></g></g></g><g fill="#000000" fill-opacity="1"><g transform="translate(252.718146, 216.249991)"><g><path d="M 2.625 -6.078125 L 5.484375 -6.078125 C 6.191406 -6.078125 6.773438 -6.316406 7.234375 -6.796875 C 7.703125 -7.285156 7.9375 -7.894531 7.9375 -8.625 C 7.9375 -9.332031 7.710938 -9.921875 7.265625 -10.390625 C 6.816406 -10.847656 6.222656 -11.078125 5.484375 -11.078125 L 2.625 -11.078125 Z M 9.203125 -8.59375 C 9.203125 -7.519531 8.820312 -6.625 8.0625 -5.90625 C 7.382812 -5.28125 6.570312 -4.9375 5.625 -4.875 L 9.40625 0 L 7.703125 0 L 4.109375 -4.859375 L 2.625 -4.859375 L 2.625 0 L 1.359375 0 L 1.359375 -12.296875 L 5.296875 -12.296875 C 6.390625 -12.296875 7.3125 -11.953125 8.0625 -11.265625 C 8.820312 -10.535156 9.203125 -9.644531 9.203125 -8.59375 Z M 9.203125 -8.59375 "/></g></g></g><g fill="#000000" fill-opacity="1"><g transform="translate(266.163918, 216.249991)"><g><path d="M 6.109375 -5.78125 L 6.109375 0 L 4.84375 0 L 4.84375 -5.78125 L 0.1875 -12.296875 L 1.8125 -12.296875 L 5.484375 -7.03125 L 9.140625 -12.296875 L 10.75 -12.296875 Z M 6.109375 -5.78125 "/></g></g></g></svg>